<svg width="601" height="72" viewBox="0 0 601 72" fill="none" xmlns="http://www.w3.org/2000/svg">
<path d="M141.2 32.5C167.7 32.5 170.8 40.5 170.8 49.7C170.8 66.6 155.1 69.5 141.9 69.5C121.9 69.5 111.3 62.2 107.5 59.5L112.3 50.8C119.1 54.9 125.7 59.5 142.2 59.5C152.7 59.5 160.1 57.2 160.1 50.7C160.1 43.2 156.2 43 134.3 42.4C120.9 42.2 111.6 38.3 111.6 26.1C111.6 16.2 119 7.2 138.7 7.2C153 7.2 163.7 13 167.7 15L163.1 23.9C158.2 21.2 151.8 17.1 138.9 17.1C127.9 17.2 122.3 20 122.3 25C122.3 30.7 124.3 32.5 141.2 32.5ZM223.9 59.5C206 59.5 197.5 49.2 197.5 38.9C197.5 26.9 207.1 17.1 222.6 17.1C234.7 17.1 241.4 22.3 247.7 26.5L253 18.1C248.2 14.5 239 7.10001 222.5 7.10001C202.8 7.10001 187.4 19.9 187.4 38.1C187.4 56.9 202.5 69.4 223.9 69.4C241.5 69.4 251.3 61.9 253.7 60.3L249.3 51.1C246.3 53.3 237.6 59.5 223.9 59.5ZM364.7 9H354.7V67.7H400.5V57.7H364.7V9ZM422 67.7H432V9H422V67.7ZM590.1 9V52.5L553.4 9H543.4V67.7H553.4V24.1L590.1 67.7H600.1V9H590.1ZM306 9L337.9 67.7H326.1L322.9 61.8H278.7L275.6 67.7H264.3L296 9H306ZM318.7 53.8L300.9 20.2L282.9 53.8H318.7ZM492.7 9L524.6 67.7H512.8L509.6 61.8H465.4L462.3 67.7H451L482.7 9H492.7ZM505.3 53.8L487.6 20.2L469.6 53.8H505.3Z" fill="#4D2B80"/>
<mask id="mask0_2014_3039" style="mask-type:luminance" maskUnits="userSpaceOnUse" x="0" y="0" width="72" height="72">
<path d="M3 43.3H11.1V58H3V43.3ZM14 43.3H37.5V58H14V43.3ZM14 60.9H60.5V42.5H68.6V68.3H14V60.9ZM26.4 27.1H57.6V58H40.4V40.4H26.4V27.1ZM14 13.7H57.6V24.2H23.5V40.4H14V13.7ZM60.5 13.7H68.6V39.5H60.5V13.7ZM3 3.39999H57.6V10.8H11.1V40.4H3V3.39999ZM0 0.5V60.9H11V71.3H71.4V10.9H60.4V0.5H0Z" fill="white"/>
</mask>
<g mask="url(#mask0_2014_3039)">
<path d="M31.2 -35L-35.1 40.3L40.3 106.7L106.6 31.4L31.2 -35Z" fill="url(#paint0_linear_2014_3039)"/>
</g>
<defs>
<linearGradient id="paint0_linear_2014_3039" x1="62.2331" y1="5.74401" x2="5.05975" y2="70.6571" gradientUnits="userSpaceOnUse">
<stop stop-color="#E5005B"/>
<stop offset="0.0613315" stop-color="#C10A62"/>
<stop offset="0.1788" stop-color="#821B6E"/>
<stop offset="0.2647" stop-color="#5A2676"/>
<stop offset="0.3092" stop-color="#4B2A79"/>
<stop offset="0.422" stop-color="#525583"/>
<stop offset="0.5366" stop-color="#577A8B"/>
<stop offset="0.6519" stop-color="#5B9692"/>
<stop offset="0.7665" stop-color="#5FAB96"/>
<stop offset="0.8803" stop-color="#60B799"/>
<stop offset="0.9923" stop-color="#61BB9A"/>
<stop offset="1" stop-color="#61BB9A"/>
</linearGradient>
</defs>
</svg>
